{
  "accessors": [
    {
      "bufferView": 3,
      "componentType": 5126,
      "count": 2709,
      "max": [
        108.36940002441406,
        49.200225830078125,
        67.90171813964844
      ],
      "min": [
        -100.40460205078125,
        -52.77101135253906,
        12.643119812011719
      ],
      "type": "VEC3"
    },
    {
      "bufferView": 3,
      "byteOffset": 32508,
      "componentType": 5126,
      "count": 2709,
      "max": [
        0.9999889731407166,
        0.9999538660049438,
        0.9999873042106628
      ],
      "min": [
        -0.9999967813491821,
        -0.9999871850013733,
        -0.9999972581863403
      ],
      "type": "VEC3"
    },
    {
      "bufferView": 2,
      "componentType": 5126,
      "count": 2709,
      "max": [
        1.0,
        1.0
      ],
      "min": [
        0.0,
        0.0
      ],
      "type": "VEC2"
    },
    {
      "bufferView": 1,
      "componentType": 5125,
      "count": 7194,
      "type": "SCALAR"
    },
    {
      "bufferView": 3,
      "byteOffset": 65016,
      "componentType": 5126,
      "count": 12,
      "max": [
        35.658782958984375,
        33.76551818847656,
        65.9193115234375
      ],
      "min": [
        12.732787132263184,
        -36.95872497558594,
        45.50533676147461
      ],
      "type": "VEC3"
    },
    {
      "bufferView": 3,
      "byteOffset": 65160,
      "componentType": 5126,
      "count": 12,
      "max": [
        0.6642290353775024,
        0.35427799820899963,
        0.7519959807395935
      ],
      "min": [
        0.644288957118988,
        -0.34820297360420227,
        0.677774965763092
      ],
      "type": "VEC3"
    },
    {
      "bufferView": 2,
      "byteOffset": 21672,
      "componentType": 5126,
      "count": 12,
      "max": [
        6.4730730056762695,
        3.278585910797119
      ],
      "min": [
        -3.200108051300049,
        -0.4742230176925659
      ],
      "type": "VEC2"
    },
    {
      "bufferView": 1,
      "byteOffset": 28776,
      "componentType": 5125,
      "count": 30,
      "type": "SCALAR"
    },
    {
      "bufferView": 3,
      "byteOffset": 65304,
      "componentType": 5126,
      "count": 429,
      "max": [
        76.40264892578125,
        43.67913818359375,
        32.06706237792969
      ],
      "min": [
        -61.01141357421875,
        -47.49599075317383,
        0.46892499923706055
      ],
      "type": "VEC3"
    },
    {
      "bufferView": 3,
      "byteOffset": 70452,
      "componentType": 5126,
      "count": 429,
      "max": [
        0.9974246621131897,
        0.999998152256012,
        0.9892748594284058
      ],
      "min": [
        -0.9974756836891174,
        -0.9999993443489075,
        -0.9898734092712402
      ],
      "type": "VEC3"
    },
    {
      "bufferView": 2,
      "byteOffset": 21768,
      "componentType": 5126,
      "count": 429,
      "max": [
        2.7000489234924316,
        0.9995110034942627
      ],
      "min": [
        0.17831000685691833,
        0.00732797384262085
      ],
      "type": "VEC2"
    },
    {
      "bufferView": 1,
      "byteOffset": 28896,
      "componentType": 5125,
      "count": 1512,
      "type": "SCALAR"
    },
    {
      "bufferView": 3,
      "byteOffset": 75600,
      "componentType": 5126,
      "count": 8,
      "max": [
        32.970611572265625,
        9.515923500061035,
        56.418636322021484
      ],
      "min": [
        28.109535217285156,
        -12.616999626159668,
        50.80677032470703
      ],
      "type": "VEC3"
    },
    {
      "bufferView": 3,
      "byteOffset": 75696,
      "componentType": 5126,
      "count": 8,
      "max": [
        0.7832789421081543,
        0.03383601829409599,
        0.6220806837081909
      ],
      "min": [
        0.7822216749191284,
        -0.08061095327138901,
        0.6164219379425049
      ],
      "type": "VEC3"
    },
    {
      "bufferView": 2,
      "byteOffset": 25200,
      "componentType": 5126,
      "count": 8,
      "max": [
        1.0,
        1.0
      ],
      "min": [
        0.0,
        0.0
      ],
      "type": "VEC2"
    },
    {
      "bufferView": 1,
      "byteOffset": 34944,
      "componentType": 5125,
      "count": 12,
      "type": "SCALAR"
    },
    {
      "bufferView": 5,
      "componentType": 5126,
      "count": 2,
      "max": [
        1.0,
        0.0,
        0.0,
        0.0,
        0.0,
        1.0,
        0.0,
        0.0,
        0.0,
        0.0,
        1.0,
        0.0,
        0.0,
        0.0,
        0.0,
        1.0
      ],
      "min": [
        1.0,
        0.0,
        0.0,
        0.0,
        0.0,
        1.0,
        0.0,
        0.0,
        0.0,
        0.0,
        1.0,
        0.0,
        0.0,
        0.0,
        0.0,
        1.0
      ],
      "type": "MAT4"
    },
    {
      "bufferView": 0,
      "componentType": 5123,
      "count": 2709,
      "type": "VEC4"
    },
    {
      "bufferView": 4,
      "componentType": 5126,
      "count": 2709,
      "max": [
        1.0,
        0.0,
        0.0,
        0.0
      ],
      "min": [
        1.0,
        0.0,
        0.0,
        0.0
      ],
      "type": "VEC4"
    },
    {
      "bufferView": 0,
      "byteOffset": 21672,
      "componentType": 5123,
      "count": 12,
      "type": "VEC4"
    },
    {
      "bufferView": 4,
      "byteOffset": 43344,
      "componentType": 5126,
      "count": 12,
      "max": [
        1.0,
        0.0,
        0.0,
        0.0
      ],
      "min": [
        1.0,
        0.0,
        0.0,
        0.0
      ],
      "type": "VEC4"
    },
    {
      "bufferView": 0,
      "byteOffset": 21768,
      "componentType": 5123,
      "count": 429,
      "type": "VEC4"
    },
    {
      "bufferView": 4,
      "byteOffset": 43536,
      "componentType": 5126,
      "count": 429,
      "max": [
        1.0,
        0.0,
        0.0,
        0.0
      ],
      "min": [
        1.0,
        0.0,
        0.0,
        0.0
      ],
      "type": "VEC4"
    },
    {
      "bufferView": 0,
      "byteOffset": 25200,
      "componentType": 5123,
      "count": 8,
      "type": "VEC4"
    },
    {
      "bufferView": 4,
      "byteOffset": 50400,
      "componentType": 5126,
      "count": 8,
      "max": [
        1.0,
        0.0,
        0.0,
        0.0
      ],
      "min": [
        1.0,
        0.0,
        0.0,
        0.0
      ],
      "type": "VEC4"
    }
  ],
  "asset": {
    "extras": {
      "author": "zairiqzairiq (https://sketchfab.com/zairiqzairiq)",
      "license": "CC-BY-4.0 (http://creativecommons.org/licenses/by/4.0/)",
      "source": "https://sketchfab.com/3d-models/chick-hicks-b80a2a5fbb3f4372a0bead029428fb96",
      "title": "chick hicks"
    },
    "generator": "Sketchfab-12.65.0",
    "version": "2.0"
  },
  "bufferViews": [
    {
      "buffer": 0,
      "byteLength": 25264,
      "byteStride": 8,
      "name": "shortBufferViews",
      "target": 34962
    },
    {
      "buffer": 0,
      "byteLength": 34992,
      "byteOffset": 25264,
      "name": "floatBufferViews",
      "target": 34963
    },
    {
      "buffer": 0,
      "byteLength": 25264,
      "byteOffset": 60256,
      "byteStride": 8,
      "name": "floatBufferViews",
      "target": 34962
    },
    {
      "buffer": 0,
      "byteLength": 75792,
      "byteOffset": 85520,
      "byteStride": 12,
      "name": "floatBufferViews",
      "target": 34962
    },
    {
      "buffer": 0,
      "byteLength": 50528,
      "byteOffset": 161312,
      "byteStride": 16,
      "name": "floatBufferViews",
      "target": 34962
    },
    {
      "buffer": 0,
      "byteLength": 128,
      "byteOffset": 211840,
      "name": "floatBufferViews"
    }
  ],
  "buffers": [
    {
      "byteLength": 211968,
      "uri": "scene.bin"
    }
  ],
  "images": [
    {
      "uri": "textures/Chick_body_baseColor.png"
    },
    {
      "uri": "textures/Chick_wheel_baseColor.png"
    },
    {
      "uri": "textures/Chick_eye_baseColor.png"
    }
  ],
  "materials": [
    {
      "doubleSided": true,
      "name": "Chick_body",
      "pbrMetallicRoughness": {
        "baseColorTexture": {
          "index": 0
        },
        "metallicFactor": 0.0,
        "roughnessFactor": 0.042294850537622566
      }
    },
    {
      "doubleSided": true,
      "name": "eyes_white",
      "pbrMetallicRoughness": {
        "metallicFactor": 0.0,
        "roughnessFactor": 0.9577051494623774
      }
    },
    {
      "doubleSided": true,
      "name": "Chick_wheel",
      "pbrMetallicRoughness": {
        "baseColorTexture": {
          "index": 1
        },
        "metallicFactor": 0.0,
        "roughnessFactor": 0.9577051494623774
      }
    },
    {
      "doubleSided": true,
      "name": "Chick_eye",
      "pbrMetallicRoughness": {
        "baseColorTexture": {
          "index": 2
        },
        "metallicFactor": 0.0,
        "roughnessFactor": 0.9577051494623774
      }
    }
  ],
  "meshes": [
    {
      "name": "mesh0_Chick_body_0",
      "primitives": [
        {
          "attributes": {
            "JOINTS_0": 17,
            "NORMAL": 1,
            "POSITION": 0,
            "TEXCOORD_0": 2,
            "TEXCOORD_1": 2,
            "TEXCOORD_2": 2,
            "WEIGHTS_0": 18
          },
          "indices": 3,
          "material": 0,
          "mode": 4
        }
      ]
    },
    {
      "name": "mesh1_eyes_white_0",
      "primitives": [
        {
          "attributes": {
            "JOINTS_0": 19,
            "NORMAL": 5,
            "POSITION": 4,
            "TEXCOORD_0": 6,
            "TEXCOORD_1": 6,
            "TEXCOORD_2": 6,
            "WEIGHTS_0": 20
          },
          "indices": 7,
          "material": 1,
          "mode": 4
        }
      ]
    },
    {
      "name": "mesh2_Chick_wheel_0",
      "primitives": [
        {
          "attributes": {
            "JOINTS_0": 21,
            "NORMAL": 9,
            "POSITION": 8,
            "TEXCOORD_0": 10,
            "TEXCOORD_1": 10,
            "TEXCOORD_2": 10,
            "WEIGHTS_0": 22
          },
          "indices": 11,
          "material": 2,
          "mode": 4
        }
      ]
    },
    {
      "name": "mesh3_Chick_eye_0",
      "primitives": [
        {
          "attributes": {
            "JOINTS_0": 23,
            "NORMAL": 13,
            "POSITION": 12,
            "TEXCOORD_0": 14,
            "TEXCOORD_1": 14,
            "TEXCOORD_2": 14,
            "WEIGHTS_0": 24
          },
          "indices": 15,
          "material": 3,
          "mode": 4
        }
      ]
    }
  ],
  "nodes": [
    {
      "children": [
        1
      ],
      "matrix": [
        0.9999735951423645,
        0.005200904794037343,
        -0.005079128313809632,
        0.0,
        0.00520083773881197,
        -0.999986469745636,
        -2.6416422770347833e-05,
        0.0,
        -0.005079197231680155,
        4.4072532437916057e-16,
        -0.9999871253967285,
        0.0,
        0.0016832937253639102,
        -0.3599121272563935,
        0.32419258356094355,
        1.0
      ],
      "name": "Sketchfab_model"
    },
    {
      "children": [
        2
      ],
      "matrix": [
        0.009999999776482582,
        0.0,
        0.0,
        0.0,
        0.0,
        0.0,
        0.009999999776482582,
        0.0,
        0.0,
        -0.009999999776482582,
        0.0,
        0.0,
        0.0,
        0.0,
        0.0,
        1.0
      ],
      "name": "e0cdd50e30a947c4838743f358942887.fbx"
    },
    {
      "children": [
        3
      ],
      "name": "RootNode"
    },
    {
      "children": [
        4,
        5,
        6,
        7,
        8
      ],
      "name": "Object_3"
    },
    {
      "children": [
        9
      ],
      "name": "_rootJoint"
    },
    {
      "mesh": 0,
      "name": "Object_5",
      "skin": 0
    },
    {
      "mesh": 1,
      "name": "Object_6",
      "skin": 0
    },
    {
      "mesh": 2,
      "name": "Object_7",
      "skin": 0
    },
    {
      "mesh": 3,
      "name": "Object_8",
      "skin": 0
    },
    {
      "name": "static_prop_00"
    }
  ],
  "samplers": [
    {
      "magFilter": 9729,
      "minFilter": 9987,
      "wrapS": 10497,
      "wrapT": 10497
    }
  ],
  "scene": 0,
  "scenes": [
    {
      "name": "Sketchfab_Scene",
      "nodes": [
        0
      ]
    }
  ],
  "skins": [
    {
      "inverseBindMatrices": 16,
      "joints": [
        4,
        9
      ],
      "skeleton": 4
    }
  ],
  "textures": [
    {
      "sampler": 0,
      "source": 0
    },
    {
      "sampler": 0,
      "source": 1
    },
    {
      "sampler": 0,
      "source": 2
    }
  ]
}
