{
  "accessors": [
    {
      "bufferView": 2,
      "componentType": 5126,
      "count": 15805,
      "max": [
        93.33760070800781,
        113.9056167602539,
        52.22264099121094
      ],
      "min": [
        -93.33760070800781,
        -113.80709838867188,
        4.386602878570557
      ],
      "type": "VEC3"
    },
    {
      "bufferView": 2,
      "byteOffset": 189660,
      "componentType": 5126,
      "count": 15805,
      "max": [
        1.0,
        1.0,
        1.0
      ],
      "min": [
        -1.0,
        -1.0,
        -1.0
      ],
      "type": "VEC3"
    },
    {
      "bufferView": 3,
      "componentType": 5126,
      "count": 15805,
      "max": [
        1.0,
        1.0,
        1.0,
        1.0
      ],
      "min": [
        -1.0,
        -1.0,
        -1.0,
        -1.0
      ],
      "type": "VEC4"
    },
    {
      "bufferView": 1,
      "componentType": 5126,
      "count": 15805,
      "max": [
        0.9950600266456604,
        0.9970628023147583
      ],
      "min": [
        0.0014711985131725669,
        0.0034057889133691788
      ],
      "type": "VEC2"
    },
    {
      "bufferView": 0,
      "componentType": 5125,
      "count": 32562,
      "type": "SCALAR"
    }
  ],
  "asset": {
    "extras": {
      "author": "mertart3D (https://sketchfab.com/mertbbicak)",
      "license": "CC-BY-4.0 (http://creativecommons.org/licenses/by/4.0/)",
      "source": "https://sketchfab.com/3d-models/low-quality-soccer-stadium-5155a9a81eca4b95b39cce313350ca2f",
      "title": "Low Quality Soccer Stadium"
    },
    "generator": "Sketchfab-12.68.0",
    "version": "2.0"
  },
  "bufferViews": [
    {
      "buffer": 0,
      "byteLength": 130248,
      "name": "floatBufferViews",
      "target": 34963
    },
    {
      "buffer": 0,
      "byteLength": 126440,
      "byteOffset": 130248,
      "byteStride": 8,
      "name": "floatBufferViews",
      "target": 34962
    },
    {
      "buffer": 0,
      "byteLength": 379320,
      "byteOffset": 256688,
      "byteStride": 12,
      "name": "floatBufferViews",
      "target": 34962
    },
    {
      "buffer": 0,
      "byteLength": 252880,
      "byteOffset": 636008,
      "byteStride": 16,
      "name": "floatBufferViews",
      "target": 34962
    }
  ],
  "buffers": [
    {
      "byteLength": 888888,
      "uri": "scene.bin"
    }
  ],
  "images": [
    {
      "uri": "textures/stadium_baseColor.png"
    },
    {
      "uri": "textures/stadium_normal.png"
    }
  ],
  "materials": [
    {
      "doubleSided": true,
      "name": "stadium",
      "normalTexture": {
        "index": 1
      },
      "pbrMetallicRoughness": {
        "baseColorTexture": {
          "index": 0
        },
        "metallicFactor": 0.0,
        "roughnessFactor": 0.8211145618000169
      }
    }
  ],
  "meshes": [
    {
      "name": "stadium.baked.000_stadium_0",
      "primitives": [
        {
          "attributes": {
            "NORMAL": 1,
            "POSITION": 0,
            "TANGENT": 2,
            "TEXCOORD_0": 3
          },
          "indices": 4,
          "material": 0,
          "mode": 4
        }
      ]
    }
  ],
  "nodes": [
    {
      "children": [
        1
      ],
      "matrix": [
        1.0,
        0.0,
        0.0,
        0.0,
        0.0,
        2.220446049250313e-16,
        -1.0,
        0.0,
        0.0,
        1.0,
        2.220446049250313e-16,
        0.0,
        0.0,
        0.0,
        0.0,
        1.0
      ],
      "name": "Sketchfab_model"
    },
    {
      "children": [
        2
      ],
      "matrix": [
        1.0,
        0.0,
        0.0,
        0.0,
        0.0,
        0.0,
        1.0,
        0.0,
        0.0,
        -1.0,
        0.0,
        0.0,
        0.0,
        0.0,
        0.0,
        1.0
      ],
      "name": "stadium.fbx"
    },
    {
      "children": [
        3
      ],
      "name": "RootNode"
    },
    {
      "children": [
        4
      ],
      "matrix": [
        1.684954433018088e-05,
        0.0,
        -86.53786468505696,
        0.0,
        -86.53786468505582,
        -1.4098807726823387e-05,
        -1.6849544339788513e-05,
        0.0,
        -1.6292067955836487e-05,
        99.99999999999869,
        -3.197442310920451e-12,
        0.0,
        0.0,
        0.0,
        0.0,
        1.0
      ],
      "name": "stadium.baked.000"
    },
    {
      "mesh": 0,
      "name": "stadium.baked.000_stadium_0"
    }
  ],
  "samplers": [
    {
      "magFilter": 9729,
      "minFilter": 9987,
      "wrapS": 10497,
      "wrapT": 10497
    }
  ],
  "scene": 0,
  "scenes": [
    {
      "name": "Sketchfab_Scene",
      "nodes": [
        0
      ]
    }
  ],
  "textures": [
    {
      "sampler": 0,
      "source": 0
    },
    {
      "sampler": 0,
      "source": 1
    }
  ]
}
