{
  "accessors": [
    {
      "bufferView": 2,
      "componentType": 5126,
      "count": 877,
      "max": [
        0.7430790066719055,
        1.6378990411758423,
        1.0692110061645508
      ],
      "min": [
        -0.71355801820755,
        -1.7398879528045654,
        0.08614099770784378
      ],
      "type": "VEC3"
    },
    {
      "bufferView": 2,
      "byteOffset": 10524,
      "componentType": 5126,
      "count": 877,
      "max": [
        0.9982975125312805,
        0.9997591376304626,
        0.9985976219177246
      ],
      "min": [
        -0.9972468614578247,
        -0.99913090467453,
        -0.9999996423721313
      ],
      "type": "VEC3"
    },
    {
      "bufferView": 1,
      "componentType": 5126,
      "count": 877,
      "max": [
        0.9990149736404419,
        0.992812991142273
      ],
      "min": [
        0.0004879999905824661,
        0.0013830000534653664
      ],
      "type": "VEC2"
    },
    {
      "bufferView": 0,
      "componentType": 5125,
      "count": 2535,
      "type": "SCALAR"
    },
    {
      "bufferView": 2,
      "byteOffset": 21048,
      "componentType": 5126,
      "count": 500,
      "max": [
        0.6501590013504028,
        1.6831239461898804,
        1.1127560138702393
      ],
      "min": [
        -0.633762001991272,
        -1.7756340503692627,
        0.07426299899816513
      ],
      "type": "VEC3"
    },
    {
      "bufferView": 2,
      "byteOffset": 27048,
      "componentType": 5126,
      "count": 500,
      "max": [
        0.9991641044616699,
        0.996265172958374,
        0.9998732805252075
      ],
      "min": [
        -0.9996619820594788,
        -0.9843299388885498,
        -0.9976714253425598
      ],
      "type": "VEC3"
    },
    {
      "bufferView": 1,
      "byteOffset": 7016,
      "componentType": 5126,
      "count": 500,
      "max": [
        0.996766984462738,
        0.9985420107841492
      ],
      "min": [
        5.900000178371556e-05,
        0.006198999937623739
      ],
      "type": "VEC2"
    },
    {
      "bufferView": 0,
      "byteOffset": 10140,
      "componentType": 5125,
      "count": 1941,
      "type": "SCALAR"
    },
    {
      "bufferView": 2,
      "byteOffset": 33048,
      "componentType": 5126,
      "count": 36,
      "max": [
        0.24443000555038452,
        -0.475957989692688,
        0.929722011089325
      ],
      "min": [
        -0.23504799604415894,
        -0.5538510084152222,
        0.8168799877166748
      ],
      "type": "VEC3"
    },
    {
      "bufferView": 2,
      "byteOffset": 33480,
      "componentType": 5126,
      "count": 36,
      "max": [
        0.6918874979019165,
        -0.2929964065551758,
        0.9478123188018799
      ],
      "min": [
        -0.7406271696090698,
        -0.9999213218688965,
        -0.04699772223830223
      ],
      "type": "VEC3"
    },
    {
      "bufferView": 1,
      "byteOffset": 11016,
      "componentType": 5126,
      "count": 36,
      "max": [
        0.9506880044937134,
        0.9644590020179749
      ],
      "min": [
        0.05061899870634079,
        0.05050500109791756
      ],
      "type": "VEC2"
    },
    {
      "bufferView": 0,
      "byteOffset": 17904,
      "componentType": 5125,
      "count": 96,
      "type": "SCALAR"
    },
    {
      "bufferView": 2,
      "byteOffset": 33912,
      "componentType": 5126,
      "count": 56,
      "max": [
        0.6228269934654236,
        0.8502730131149292,
        1.0084140300750732
      ],
      "min": [
        -0.6055600047111511,
        -0.37109801173210144,
        0.7459080219268799
      ],
      "type": "VEC3"
    },
    {
      "bufferView": 2,
      "byteOffset": 34584,
      "componentType": 5126,
      "count": 56,
      "max": [
        0.9607685208320618,
        0.9941806793212891,
        0.9781063199043274
      ],
      "min": [
        -0.9265265464782715,
        -0.6274804472923279,
        -0.3233092427253723
      ],
      "type": "VEC3"
    },
    {
      "bufferView": 1,
      "byteOffset": 11304,
      "componentType": 5126,
      "count": 56,
      "max": [
        0.6714310050010681,
        0.9793519973754883
      ],
      "min": [
        0.42684799432754517,
        0.20357300341129303
      ],
      "type": "VEC2"
    },
    {
      "bufferView": 0,
      "byteOffset": 18288,
      "componentType": 5125,
      "count": 126,
      "type": "SCALAR"
    },
    {
      "bufferView": 2,
      "byteOffset": 35256,
      "componentType": 5126,
      "count": 1980,
      "max": [
        0.7522749900817871,
        1.7165659666061401,
        1.052374005317688
      ],
      "min": [
        -0.7295550107955933,
        -1.811372995376587,
        0.08614099770784378
      ],
      "type": "VEC3"
    },
    {
      "bufferView": 2,
      "byteOffset": 59016,
      "componentType": 5126,
      "count": 1980,
      "max": [
        0.9998643398284912,
        0.9999405145645142,
        0.9999325275421143
      ],
      "min": [
        -0.9999397993087769,
        -0.9999868869781494,
        -0.9999858140945435
      ],
      "type": "VEC3"
    },
    {
      "bufferView": 1,
      "byteOffset": 11752,
      "componentType": 5126,
      "count": 1980,
      "max": [
        0.9943180084228516,
        0.9947599768638611
      ],
      "min": [
        0.008647999726235867,
        0.009379999712109566
      ],
      "type": "VEC2"
    },
    {
      "bufferView": 0,
      "byteOffset": 18792,
      "componentType": 5125,
      "count": 5280,
      "type": "SCALAR"
    },
    {
      "bufferView": 2,
      "byteOffset": 82776,
      "componentType": 5126,
      "count": 586,
      "max": [
        0.702538013458252,
        1.3045010566711426,
        0.4777570068836212
      ],
      "min": [
        -0.6791800260543823,
        -1.48573899269104,
        0.0021869998890906572
      ],
      "type": "VEC3"
    },
    {
      "bufferView": 2,
      "byteOffset": 89808,
      "componentType": 5126,
      "count": 586,
      "max": [
        0.9938634037971497,
        0.9998117089271545,
        0.9788262248039246
      ],
      "min": [
        -0.9880101084709167,
        -0.9997237324714661,
        -0.9799294471740723
      ],
      "type": "VEC3"
    },
    {
      "bufferView": 1,
      "byteOffset": 27592,
      "componentType": 5126,
      "count": 586,
      "max": [
        3.0,
        0.9995009899139404
      ],
      "min": [
        -0.21428599953651428,
        0.0018599999602884054
      ],
      "type": "VEC2"
    },
    {
      "bufferView": 0,
      "byteOffset": 39912,
      "componentType": 5125,
      "count": 1992,
      "type": "SCALAR"
    }
  ],
  "asset": {
    "extras": {
      "author": "Kyle.withem (https://sketchfab.com/Kyle.withem)",
      "license": "CC-BY-4.0 (http://creativecommons.org/licenses/by/4.0/)",
      "source": "https://sketchfab.com/3d-models/doc-hudson-from-cars-59c523422ecc498eb3a420a102b840f1",
      "title": "doc hudson from cars"
    },
    "generator": "Sketchfab-14.64.0",
    "version": "2.0"
  },
  "bufferViews": [
    {
      "buffer": 0,
      "byteLength": 47880,
      "name": "floatBufferViews",
      "target": 34963
    },
    {
      "buffer": 0,
      "byteLength": 32280,
      "byteOffset": 47880,
      "byteStride": 8,
      "name": "floatBufferViews",
      "target": 34962
    },
    {
      "buffer": 0,
      "byteLength": 96840,
      "byteOffset": 80160,
      "byteStride": 12,
      "name": "floatBufferViews",
      "target": 34962
    }
  ],
  "buffers": [
    {
      "byteLength": 177000,
      "uri": "scene.bin"
    }
  ],
  "images": [
    {
      "uri": "textures/Material.001_baseColor.jpeg"
    },
    {
      "uri": "textures/Material.002_baseColor.jpeg"
    },
    {
      "uri": "textures/Material.003_baseColor.jpeg"
    },
    {
      "uri": "textures/Material.004_baseColor.jpeg"
    },
    {
      "uri": "textures/Material.005_baseColor.jpeg"
    },
    {
      "uri": "textures/Material.006_baseColor.jpeg"
    }
  ],
  "materials": [
    {
      "doubleSided": true,
      "name": "Material.001",
      "pbrMetallicRoughness": {
        "baseColorTexture": {
          "index": 0
        },
        "metallicFactor": 0.0,
        "roughnessFactor": 0.8063508326896291
      }
    },
    {
      "doubleSided": true,
      "name": "Material.002",
      "pbrMetallicRoughness": {
        "baseColorTexture": {
          "index": 1
        },
        "metallicFactor": 0.0,
        "roughnessFactor": 0.8063508326896291
      }
    },
    {
      "doubleSided": true,
      "name": "Material.003",
      "pbrMetallicRoughness": {
        "baseColorTexture": {
          "index": 2
        },
        "metallicFactor": 0.0,
        "roughnessFactor": 0.8063508326896291
      }
    },
    {
      "doubleSided": true,
      "name": "Material.004",
      "pbrMetallicRoughness": {
        "baseColorTexture": {
          "index": 3
        },
        "metallicFactor": 0.0,
        "roughnessFactor": 0.8063508326896291
      }
    },
    {
      "doubleSided": true,
      "name": "Material.005",
      "pbrMetallicRoughness": {
        "baseColorTexture": {
          "index": 4
        },
        "metallicFactor": 0.0,
        "roughnessFactor": 0.8063508326896291
      }
    },
    {
      "doubleSided": true,
      "name": "Material.006",
      "pbrMetallicRoughness": {
        "baseColorTexture": {
          "index": 5
        },
        "metallicFactor": 0.0,
        "roughnessFactor": 0.8063508326896291
      }
    }
  ],
  "meshes": [
    {
      "name": "Object_0",
      "primitives": [
        {
          "attributes": {
            "NORMAL": 1,
            "POSITION": 0,
            "TEXCOORD_0": 2
          },
          "indices": 3,
          "material": 0,
          "mode": 4
        }
      ]
    },
    {
      "name": "Object_1",
      "primitives": [
        {
          "attributes": {
            "NORMAL": 5,
            "POSITION": 4,
            "TEXCOORD_0": 6
          },
          "indices": 7,
          "material": 1,
          "mode": 4
        }
      ]
    },
    {
      "name": "Object_2",
      "primitives": [
        {
          "attributes": {
            "NORMAL": 9,
            "POSITION": 8,
            "TEXCOORD_0": 10
          },
          "indices": 11,
          "material": 2,
          "mode": 4
        }
      ]
    },
    {
      "name": "Object_3",
      "primitives": [
        {
          "attributes": {
            "NORMAL": 13,
            "POSITION": 12,
            "TEXCOORD_0": 14
          },
          "indices": 15,
          "material": 3,
          "mode": 4
        }
      ]
    },
    {
      "name": "Object_4",
      "primitives": [
        {
          "attributes": {
            "NORMAL": 17,
            "POSITION": 16,
            "TEXCOORD_0": 18
          },
          "indices": 19,
          "material": 4,
          "mode": 4
        }
      ]
    },
    {
      "name": "Object_5",
      "primitives": [
        {
          "attributes": {
            "NORMAL": 21,
            "POSITION": 20,
            "TEXCOORD_0": 22
          },
          "indices": 23,
          "material": 5,
          "mode": 4
        }
      ]
    }
  ],
  "nodes": [
    {
      "children": [
        1
      ],
      "matrix": [
        1.0,
        0.0,
        0.0,
        0.0,
        0.0,
        2.220446049250313e-16,
        -1.0,
        0.0,
        0.0,
        1.0,
        2.220446049250313e-16,
        0.0,
        0.0,
        0.0,
        0.0,
        1.0
      ],
      "name": "Sketchfab_model"
    },
    {
      "children": [
        2,
        3,
        4,
        5,
        6,
        7
      ],
      "name": "doc hudson.obj.cleaner.materialmerger.gles"
    },
    {
      "mesh": 0,
      "name": "Object_2"
    },
    {
      "mesh": 1,
      "name": "Object_3"
    },
    {
      "mesh": 2,
      "name": "Object_4"
    },
    {
      "mesh": 3,
      "name": "Object_5"
    },
    {
      "mesh": 4,
      "name": "Object_6"
    },
    {
      "mesh": 5,
      "name": "Object_7"
    }
  ],
  "samplers": [
    {
      "magFilter": 9729,
      "minFilter": 9987,
      "wrapS": 10497,
      "wrapT": 10497
    }
  ],
  "scene": 0,
  "scenes": [
    {
      "name": "Sketchfab_Scene",
      "nodes": [
        0
      ]
    }
  ],
  "textures": [
    {
      "sampler": 0,
      "source": 0
    },
    {
      "sampler": 0,
      "source": 1
    },
    {
      "sampler": 0,
      "source": 2
    },
    {
      "sampler": 0,
      "source": 3
    },
    {
      "sampler": 0,
      "source": 4
    },
    {
      "sampler": 0,
      "source": 5
    }
  ]
}
